HIERARCHY
ROOT Hips
{
    OFFSET 0.000000 0.000000 0.000000
    CHANNELS 6 Xposition Yposition Zposition Zrotation Yrotation Xrotation
    JOINT Chest
    {
        OFFSET 0.000000 1.634758 -0.000000
        CHANNELS 3 Zrotation Yrotation Xrotation
        JOINT Chest2
        {
            OFFSET 0.000000 2.197341 0.000000
            CHANNELS 3 Zrotation Yrotation Xrotation
            JOINT Neck
            {
                OFFSET 0.000000 0.961544 0.000000
                CHANNELS 3 Zrotation Yrotation Xrotation
                JOINT Head
                {
                    OFFSET 0.000000 0.632542 -0.032565
                    CHANNELS 3 Zrotation Yrotation Xrotation
                    End Site
                    {
                        OFFSET -0.000001 0.439502 2.922845
                    }
                }
            }
            JOINT LeftCollar
            {
                OFFSET 0.167536 0.778237 -0.168280
                CHANNELS 3 Zrotation Yrotation Xrotation
                JOINT LeftShoulder
                {
                    OFFSET 0.831514 -0.002900 0.006458
                    CHANNELS 3 Zrotation Yrotation Xrotation
                    JOINT LeftElbow
                    {
                        OFFSET 2.272872 -0.026639 0.059314
                        CHANNELS 3 Zrotation Yrotation Xrotation
                        JOINT LeftWrist
                        {
                            OFFSET 2.081982 -0.024402 0.054333
                            CHANNELS 3 Zrotation Yrotation Xrotation
                            JOINT LeftHandThumb1
                            {
                                OFFSET 0.218903 -0.128645 0.283837
                                CHANNELS 3 Zrotation Yrotation Xrotation
                                JOINT LeftHandThumb2
                                {
                                    OFFSET 0.137157 -0.025101 0.077902
                                    CHANNELS 3 Zrotation Yrotation Xrotation
                                    JOINT LeftHandThumb3
                                    {
                                        OFFSET 0.166811 -0.075392 0.005417
                                        CHANNELS 3 Zrotation Yrotation Xrotation
                                        End Site
                                        {
                                            OFFSET 0.257669 -0.066032 -0.032901
                                        }
                                    }
                                }
                            }
                            JOINT LeftHandFore1
                            {
                                OFFSET 0.767340 -0.016076 0.196678
                                CHANNELS 3 Zrotation Yrotation Xrotation
                                JOINT LeftHandFore2
                                {
                                    OFFSET 0.195508 -0.091167 -0.021458
                                    CHANNELS 3 Zrotation Yrotation Xrotation
                                    JOINT LeftHandFore3
                                    {
                                        OFFSET 0.081481 -0.100220 -0.008931
                                        CHANNELS 3 Zrotation Yrotation Xrotation
                                        End Site
                                        {
                                            OFFSET 0.078004 -0.176453 -0.012105
                                        }
                                    }
                                }
                            }
                            JOINT LeftHandMiddle1
                            {
                                OFFSET 0.709887 -0.008320 0.018526
                                CHANNELS 3 Zrotation Yrotation Xrotation
                                JOINT LeftHandMiddle2
                                {
                                    OFFSET 0.176069 -0.170371 -0.006122
                                    CHANNELS 3 Zrotation Yrotation Xrotation
                                    JOINT LeftHandMiddle3
                                    {
                                        OFFSET 0.069464 -0.128663 -0.001966
                                        CHANNELS 3 Zrotation Yrotation Xrotation
                                        End Site
                                        {
                                            OFFSET 0.079720 -0.221975 -0.001360
                                        }
                                    }
                                }
                            }
                            JOINT LeftHandRing1
                            {
                                OFFSET 0.743817 -0.005823 -0.153668
                                CHANNELS 3 Zrotation Yrotation Xrotation
                                JOINT LeftHandRing2
                                {
                                    OFFSET 0.194288 -0.294886 -0.005313
                                    CHANNELS 3 Zrotation Yrotation Xrotation
                                    JOINT LeftHandRing3
                                    {
                                        OFFSET 0.023054 -0.134439 -0.000647
                                        CHANNELS 3 Zrotation Yrotation Xrotation
                                        End Site
                                        {
                                            OFFSET -0.003092 -0.120017 -0.002479
                                        }
                                    }
                                }
                            }
                            JOINT LeftHandLittle1
                            {
                                OFFSET 0.689408 -0.053302 -0.308304
                                CHANNELS 3 Zrotation Yrotation Xrotation
                                JOINT LeftHandLittle2
                                {
                                    OFFSET 0.084134 -0.175701 -0.010236
                                    CHANNELS 3 Zrotation Yrotation Xrotation
                                    JOINT LeftHandLittle3
                                    {
                                        OFFSET -0.005166 -0.118979 -0.017705
                                        CHANNELS 3 Zrotation Yrotation Xrotation
                                        End Site
                                        {
                                            OFFSET -0.007183 -0.189328 -0.019796
                                        }
                                    }
                                }
                            }
                        }
                    }
                }
            }
            JOINT RightCollar
            {
                OFFSET -0.167536 0.778237 -0.168280
                CHANNELS 3 Zrotation Yrotation Xrotation
                JOINT RightShoulder
                {
                    OFFSET -0.831514 -0.002900 0.006457
                    CHANNELS 3 Zrotation Yrotation Xrotation
                    JOINT RightElbow
                    {
                        OFFSET -2.272872 -0.026639 0.059313
                        CHANNELS 3 Zrotation Yrotation Xrotation
                        JOINT RightWrist
                        {
                            OFFSET -2.081982 -0.024402 0.054331
                            CHANNELS 3 Zrotation Yrotation Xrotation
                            JOINT RightHandThumb1
                            {
                                OFFSET -0.218911 -0.128571 0.283837
                                CHANNELS 3 Zrotation Yrotation Xrotation
                                JOINT RightHandThumb2
                                {
                                    OFFSET -0.137157 -0.025101 0.077902
                                    CHANNELS 3 Zrotation Yrotation Xrotation
                                    JOINT RightHandThumb3
                                    {
                                        OFFSET -0.159669 -0.071371 0.054327
                                        CHANNELS 3 Zrotation Yrotation Xrotation
                                        End Site
                                        {
                                            OFFSET -0.197434 -0.081270 0.162023
                                        }
                                    }
                                }
                            }
                            JOINT RightHandFore1
                            {
                                OFFSET -0.767344 -0.015991 0.196679
                                CHANNELS 3 Zrotation Yrotation Xrotation
                                JOINT RightHandFore2
                                {
                                    OFFSET -0.207834 -0.060673 -0.010992
                                    CHANNELS 3 Zrotation Yrotation Xrotation
                                    JOINT RightHandFore3
                                    {
                                        OFFSET -0.113767 -0.061484 -0.006232
                                        CHANNELS 3 Zrotation Yrotation Xrotation
                                        End Site
                                        {
                                            OFFSET -0.152585 -0.118580 -0.004838
                                        }
                                    }
                                }
                            }
                            JOINT RightHandMiddle1
                            {
                                OFFSET -0.709887 -0.008302 0.018525
                                CHANNELS 3 Zrotation Yrotation Xrotation
                                JOINT RightHandMiddle2
                                {
                                    OFFSET -0.223975 -0.099397 0.004170
                                    CHANNELS 3 Zrotation Yrotation Xrotation
                                    JOINT RightHandMiddle3
                                    {
                                        OFFSET -0.117753 -0.086690 0.001873
                                        CHANNELS 3 Zrotation Yrotation Xrotation
                                        End Site
                                        {
                                            OFFSET -0.160065 -0.173223 0.001746
                                        }
                                    }
                                }
                            }
                            JOINT RightHandRing1
                            {
                                OFFSET -0.743819 -0.005785 -0.153669
                                CHANNELS 3 Zrotation Yrotation Xrotation
                                JOINT RightHandRing2
                                {
                                    OFFSET -0.304912 -0.178067 0.007374
                                    CHANNELS 3 Zrotation Yrotation Xrotation
                                    JOINT RightHandRing3
                                    {
                                        OFFSET -0.089359 -0.102867 -0.006181
                                        CHANNELS 3 Zrotation Yrotation Xrotation
                                        End Site
                                        {
                                            OFFSET -0.056333 -0.105815 -0.007069
                                        }
                                    }
                                }
                            }
                            JOINT RightHandLittle1
                            {
                                OFFSET -0.689403 -0.053298 -0.308303
                                CHANNELS 3 Zrotation Yrotation Xrotation
                                JOINT RightHandLittle2
                                {
                                    OFFSET -0.159225 -0.112705 0.000423
                                    CHANNELS 3 Zrotation Yrotation Xrotation
                                    JOINT RightHandLittle3
                                    {
                                        OFFSET -0.073736 -0.094993 -0.005911
                                        CHANNELS 3 Zrotation Yrotation Xrotation
                                        End Site
                                        {
                                            OFFSET -0.127870 -0.140450 -0.014549
                                        }
                                    }
                                }
                            }
                        }
                    }
                }
            }
        }
    }
    JOINT LeftHip
    {
        OFFSET 0.685143 0.673822 -0.044491
        CHANNELS 3 Zrotation Yrotation Xrotation
        JOINT LeftKnee
        {
            OFFSET 0.085364 -3.750208 0.017676
            CHANNELS 3 Zrotation Yrotation Xrotation
            JOINT LeftAnkle
            {
                OFFSET 0.094583 -4.155206 0.019585
                CHANNELS 3 Zrotation Yrotation Xrotation
                JOINT LeftToe
                {
                    OFFSET -0.000000 -0.395925 0.621478
                    CHANNELS 3 Zrotation Yrotation Xrotation
                    End Site
                    {
                        OFFSET -0.000000 -0.077878 0.321152
                    }
                }
            }
        }
    }
    JOINT RightHip
    {
        OFFSET -0.685143 0.673822 -0.044492
        CHANNELS 3 Zrotation Yrotation Xrotation
        JOINT RightKnee
        {
            OFFSET -0.085364 -3.750208 0.017677
            CHANNELS 3 Zrotation Yrotation Xrotation
            JOINT RightAnkle
            {
                OFFSET -0.094583 -4.155206 0.019585
                CHANNELS 3 Zrotation Yrotation Xrotation
                JOINT RightToe
                {
                    OFFSET -0.000000 -0.395925 0.621478
                    CHANNELS 3 Zrotation Yrotation Xrotation
                    End Site
                    {
                        OFFSET -0.000000 -0.077878 0.321152
                    }
                }
            }
        }
    }
}
MOTION
Frames: 6
Frame Time: 0.033333
0.017207 8.274386 0.027495 -0.000015 -0.000041 -0.000000 0.000010 0.000004 -3.571793 0.000011 -0.000002 -3.645264 2.014577 21.891542 3.957549 -2.944022 44.931725 8.337513 -13.100320 0.028427 0.000106 -50.935299 8.540778 0.783593 0.034258 -18.227304 -0.220917 4.152788 -7.687119 -0.803570 -0.000000 -0.000002 0.000001 -0.000001 0.000005 0.000001 0.000001 0.000002 0.000000 -0.000002 -0.000000 0.000001 0.000005 -0.000003 -0.000001 -0.000001 0.000002 0.000002 0.000003 -0.000002 0.000001 -0.000001 -0.000002 -0.000001 -0.000001 -0.000000 0.000000 -0.000002 -0.000000 -0.000001 0.000004 -0.000002 0.000000 0.000001 0.000003 0.000000 0.000000 -0.000000 -0.000001 -0.000002 -0.000000 -0.000001 0.000000 -0.000000 0.000000 12.668482 0.108134 -0.000386 48.569336 -7.319433 0.816134 -0.028287 16.646492 -0.200597 2.839826 10.968555 0.045197 -0.000003 -0.000002 -0.000001 0.000002 0.000005 -0.000001 -0.000001 -0.000003 0.000003 -0.000003 0.000002 0.000001 0.000001 -0.000000 0.000002 0.000001 -0.000000 -0.000002 0.000000 -0.000003 0.000002 -0.000007 0.000005 -0.000001 0.000008 0.000003 0.000001 -0.000006 -0.000000 -0.000001 0.000005 0.000002 -0.000000 0.000004 -0.000005 0.000002 -0.000006 -0.000000 -0.000004 0.000007 -0.000000 0.000001 0.000003 0.000002 -0.000003 -11.313019 -0.174224 -4.224760 0.013802 0.189207 8.341691 5.896241 8.626966 -7.886248 -0.058289 -0.350973 -4.201562 11.313046 0.174363 -4.230808 -0.013834 -0.189481 8.353827 -4.625159 -6.533734 -7.829799 0.075752 0.455285 -4.184028
0.017207 8.274386 0.027250 -0.000015 -0.000041 -0.000000 0.004525 0.002118 -3.567284 0.006800 -0.000835 -3.642394 2.004051 21.892849 3.958793 -2.943945 44.930969 8.339597 -13.102147 0.027979 -0.000187 -50.940884 8.513713 0.784659 0.034081 -18.182011 -0.220330 4.157400 -7.687114 -0.803903 0.000001 -0.000002 -0.000012 -0.005097 0.008171 0.002178 -0.000964 0.009598 0.002417 -0.005853 0.000092 -0.000961 -0.023117 -0.000046 -0.002532 -0.007195 0.000309 -0.001100 -0.004443 0.000053 -0.000275 -0.024705 -0.000242 -0.000937 -0.005932 -0.000213 -0.000140 -0.003206 -0.000330 0.000224 -0.024174 0.000466 0.001641 -0.003571 -0.000200 0.000292 -0.001663 -0.000241 0.000438 -0.024315 -0.001854 0.005381 -0.001582 -0.000019 0.000253 12.666489 0.110772 -0.000114 48.561069 -7.336766 0.828155 -0.028457 16.693226 -0.201192 2.831212 10.968665 0.046520 -0.000003 -0.000005 0.000006 0.005390 -0.004510 0.007665 0.010083 -0.005334 0.009840 0.026486 -0.000830 -0.000808 0.037805 -0.000447 -0.001924 -0.001112 -0.000019 -0.000007 0.022494 0.000639 -0.000112 0.034153 -0.000352 0.000630 0.007014 -0.000196 -0.000046 0.011153 0.000731 0.000316 0.024021 -0.002047 0.000776 -0.000001 -0.000002 0.000000 0.009522 0.000523 0.000470 0.025602 -0.005983 -0.000734 0.002265 -0.000635 0.000051 -11.313277 -0.174133 -4.220755 0.013764 0.188949 8.330222 5.901648 8.621716 -7.878635 -0.058251 -0.350785 -4.202510 11.311872 0.174516 -4.228065 -0.013808 -0.189299 8.345768 -4.620339 -6.537032 -7.823161 0.075861 0.456234 -4.189981
0.017207 8.274384 0.026526 -0.000015 -0.000041 -0.000000 0.017831 0.008334 -3.553981 0.026781 -0.003292 -3.633880 1.973235 21.896698 3.962458 -2.943714 44.928726 8.345762 -13.107620 0.026635 -0.001049 -50.957230 8.433982 0.787816 0.033548 -18.048807 -0.218605 4.170925 -7.687107 -0.804871 -0.000004 0.000003 -0.000002 -0.020072 0.032208 0.008583 -0.003783 0.037887 0.009557 -0.023111 0.000396 -0.003797 -0.091207 -0.000181 -0.009984 -0.028426 0.001224 -0.004340 -0.017531 0.000244 -0.001085 -0.097522 -0.000978 -0.003710 -0.023402 -0.000855 -0.000546 -0.012654 -0.001257 0.000878 -0.095418 0.001832 0.006472 -0.014081 -0.000782 0.001151 -0.006568 -0.000931 0.001732 -0.095954 -0.007226 0.021238 -0.006259 -0.000087 0.000999 12.660568 0.118569 0.000686 48.536716 -7.387467 0.863680 -0.028938 16.830297 -0.202942 2.805970 10.968980 0.050397 -0.000006 0.000002 -0.000004 0.021284 -0.017779 0.030254 0.039796 -0.021068 0.038803 0.104060 -0.003275 -0.003164 0.148514 -0.001754 -0.007560 -0.004392 -0.000079 -0.000025 0.088375 0.002508 -0.000454 0.134177 -0.001380 0.002483 0.027559 -0.000767 -0.000172 0.044033 0.002872 0.001261 0.094777 -0.008087 0.003052 0.000007 -0.000005 0.000003 0.037644 0.002068 0.001881 0.101052 -0.023617 -0.002909 0.008927 -0.002512 0.000204 -11.314043 -0.173864 -4.208879 0.013653 0.188183 8.296224 5.917605 8.606306 -7.856086 -0.058145 -0.350262 -4.205586 11.308387 0.174962 -4.219784 -0.013728 -0.188756 8.321629 -4.606129 -6.546764 -7.803423 0.076184 0.459055 -4.207728
0.017207 8.274383 0.025337 -0.000015 -0.000041 -0.000000 0.039576 0.018462 -3.532202 0.059380 -0.007309 -3.619909 1.923283 21.902958 3.968489 -2.943334 44.925018 8.355922 -13.116462 0.024376 -0.002450 -50.984051 8.302615 0.793004 0.032701 -17.829073 -0.215764 4.192860 -7.687089 -0.806427 0.000002 -0.000003 -0.000011 -0.044556 0.071512 0.019041 -0.008383 0.084085 0.021225 -0.051269 0.000866 -0.008427 -0.202443 -0.000422 -0.022165 -0.063108 0.002717 -0.009635 -0.038902 0.000533 -0.002405 -0.216472 -0.002167 -0.008232 -0.051943 -0.001902 -0.001215 -0.028050 -0.002809 0.001954 -0.211785 0.004074 0.014354 -0.031260 -0.001733 0.002556 -0.014524 -0.002083 0.003850 -0.212952 -0.015803 0.047119 -0.013902 -0.000196 0.002218 12.650918 0.131326 0.001991 48.496746 -7.468957 0.921901 -0.029753 17.051733 -0.205774 2.765044 10.969485 0.056695 -0.000001 -0.000002 0.000000 0.047240 -0.039475 0.067127 0.088348 -0.046804 0.086082 0.229888 -0.007238 -0.006983 0.328085 -0.003845 -0.016692 -0.009749 -0.000174 -0.000053 0.195253 0.005573 -0.001007 0.296411 -0.003057 0.005494 0.060874 -0.001694 -0.000374 0.097750 0.006381 0.002801 0.210368 -0.017957 0.006762 0.000002 -0.000000 0.000002 0.083582 0.004581 0.004204 0.224281 -0.052449 -0.006495 0.019810 -0.005567 0.000450 -11.315313 -0.173415 -4.189140 0.013468 0.186915 8.239939 5.943751 8.581179 -7.818848 -0.057970 -0.349404 -4.210707 11.302653 0.175677 -4.205971 -0.013596 -0.187854 8.281610 -4.582906 -6.562647 -7.770914 0.076710 0.463685 -4.236788
0.017207 8.274381 0.023698 -0.000015 -0.000041 -0.000000 0.069417 0.032304 -3.502272 0.104027 -0.012828 -3.600660 1.855349 21.911510 3.976815 -2.942805 44.919888 8.369977 -13.128676 0.021217 -0.004373 -51.020798 8.120226 0.800130 0.031518 -17.523409 -0.211827 4.222710 -7.687063 -0.808524 0.000010 -0.000000 0.000000 -0.078090 0.125406 0.033358 -0.014664 0.147421 0.037255 -0.089922 0.001515 -0.014777 -0.354962 -0.000782 -0.038880 -0.110663 0.004762 -0.016896 -0.068234 0.000934 -0.004214 -0.379581 -0.003808 -0.014444 -0.091080 -0.003335 -0.002131 -0.049177 -0.004923 0.003421 -0.371353 0.007185 0.025146 -0.054814 -0.003034 0.004480 -0.025456 -0.003649 0.006754 -0.373383 -0.027280 0.082567 -0.024378 -0.000352 0.003891 12.637669 0.148852 0.003772 48.441677 -7.578070 1.001904 -0.030868 17.350252 -0.209601 2.709339 10.970163 0.065283 0.000006 0.000009 -0.000007 0.082825 -0.069244 0.117662 0.154921 -0.082150 0.150818 0.401127 -0.012643 -0.012186 0.572462 -0.006632 -0.029112 -0.017092 -0.000302 -0.000091 0.340692 0.009776 -0.001783 0.517200 -0.005338 0.009604 0.106217 -0.002964 -0.000656 0.171405 0.011202 0.004913 0.368855 -0.031508 0.011826 0.000008 -0.000002 -0.000001 0.146551 0.008019 0.007384 0.393238 -0.092030 -0.011477 0.034739 -0.009759 0.000791 -11.317078 -0.172788 -4.161495 0.013212 0.185148 8.161510 5.979714 8.546758 -7.767121 -0.057731 -0.348221 -4.217724 11.294733 0.176642 -4.186628 -0.013414 -0.186600 8.225915 -4.551056 -6.584508 -7.725962 0.077432 0.470077 -4.276699
0.017207 8.274377 0.021624 -0.000015 -0.000041 -0.000000 0.107015 0.049661 -3.464502 0.160159 -0.019797 -3.576287 1.770574 21.922224 3.987343 -2.942131 44.913322 8.387833 -13.143950 0.017125 -0.006801 -51.067211 7.886908 0.809170 0.030054 -17.131285 -0.206791 4.259982 -7.687035 -0.811118 0.000000 0.000003 0.000001 -0.120259 0.193252 0.051329 -0.022514 0.227125 0.057452 -0.138546 0.002336 -0.022757 -0.546928 -0.001294 -0.059929 -0.170509 0.007322 -0.026036 -0.105140 0.001450 -0.006486 -0.584857 -0.005893 -0.022265 -0.140338 -0.005138 -0.003284 -0.075759 -0.007578 0.005284 -0.572179 0.011138 0.038689 -0.084452 -0.004677 0.006904 -0.039218 -0.005621 0.010410 -0.575293 -0.041319 0.127121 -0.037564 -0.000533 0.005995 12.621038 0.170945 0.005995 48.371681 -7.712217 1.102865 -0.032281 17.719969 -0.214358 2.639790 10.970997 0.076026 -0.000000 0.000009 -0.000002 0.127611 -0.106727 0.181219 0.238718 -0.126741 0.232157 0.614940 -0.019418 -0.018674 0.877609 -0.010037 -0.044585 -0.026337 -0.000470 -0.000142 0.522297 0.015055 -0.002772 0.792869 -0.008213 0.014755 0.162829 -0.004540 -0.001003 0.264092 0.017241 0.007568 0.568322 -0.048580 0.018156 0.000006 -0.000002 0.000000 0.225818 0.012327 0.011407 0.605886 -0.141926 -0.017856 0.053527 -0.015042 0.001221 -11.319345 -0.171973 -4.125581 0.012888 0.182871 8.060471 6.025159 8.503448 -7.700820 -0.057430 -0.346751 -4.226915 11.284688 0.177839 -4.162079 -0.013186 -0.185010 8.155345 -4.510937 -6.612097 -7.669187 0.078336 0.478178 -4.326919
